<svg width="37" height="37" viewBox="0 0 37 37" fill="none" xmlns="http://www.w3.org/2000/svg">
<path fill-rule="evenodd" clip-rule="evenodd" d="M28.2214 13.7447C28.4892 13.6024 28.767 13.6473 29.1236 13.7602L29.0684 13.9347C28.7168 13.8234 28.5042 13.8017 28.3072 13.9063C28.1006 14.016 27.8923 14.2735 27.5882 14.7904C27.346 15.202 27.1499 15.5174 26.9892 15.7054C26.9101 15.798 26.8301 15.8713 26.7482 15.9039C26.7051 15.9211 26.6583 15.9282 26.6105 15.918C26.5627 15.9077 26.5225 15.8819 26.4895 15.8477L26.6211 15.7206C26.6345 15.7344 26.6438 15.738 26.6489 15.7391C26.654 15.7401 26.6635 15.7407 26.6805 15.7339C26.7189 15.7186 26.7747 15.6747 26.8501 15.5865C26.9985 15.413 27.1865 15.1122 27.4304 14.6976C27.7322 14.1847 27.9632 13.8818 28.2214 13.7447Z" fill="#1BC6EC"/>
<path d="M6.43609 21.4763C6.43609 21.4763 5.8872 24.9674 9.86188 24.9674C13.8366 24.9674 16.0899 18.5867 17.7631 15.1852C19.4387 11.7808 22.3685 9.34998 25.1708 9.34998C27.973 9.34998 29.9953 11.6466 30.5875 12.9138C31.1797 14.1809 31.0859 15.795 30.7512 16.8244C30.4166 17.8538 29.2008 19.5602 28.7868 19.079C28.3727 18.5979 29.3068 17.9489 29.3068 15.6663C29.3068 13.3837 28.4016 13.5879 28.0067 13.9488C27.429 14.567 26.933 16.181 26.5093 15.8677C26.1217 15.5796 27.429 12.6844 25.296 12.7375C23.3098 12.7879 20.7892 19.065 21.4417 19.8203C22.0941 20.5784 23.6565 18.1839 24.1645 18.7741C24.6724 19.3644 21.2707 24.1753 18.0183 26.0411C14.7658 27.9069 12.2862 27.4957 10.6587 27.2887C9.03131 27.0817 6.3422 26.2262 5.74034 24.0051C5.13848 21.784 6.43609 21.4763 6.43609 21.4763Z" fill="url(#paint0_linear_548_74)"/>
<path opacity="0.5" d="M6.43609 21.4763C6.43609 21.4763 5.8872 24.9674 9.86188 24.9674C13.8366 24.9674 16.0899 18.5867 17.7631 15.1852C19.4387 11.7808 22.3685 9.34998 25.1708 9.34998C27.973 9.34998 29.9953 11.6466 30.5875 12.9138C31.1797 14.1809 31.0859 15.795 30.7512 16.8244C30.4166 17.8538 29.2008 19.5602 28.7867 19.079C28.3727 18.5979 29.3068 17.9489 29.3068 15.6663C29.3068 13.3837 28.4016 13.5879 28.0067 13.9488C27.429 14.567 26.933 16.181 26.5093 15.8677C26.1217 15.5796 27.429 12.6844 25.296 12.7375C23.3098 12.7879 20.7892 19.065 21.4417 19.8203C22.0941 20.5784 23.6565 18.1839 24.1645 18.7741C24.6724 19.3644 21.2707 24.1753 18.0183 26.0411C14.7658 27.9069 12.2862 27.4957 10.6587 27.2887C9.03131 27.0817 6.3422 26.2262 5.74034 24.0051C5.13848 21.784 6.43609 21.4763 6.43609 21.4763Z" fill="url(#paint1_linear_548_74)"/>
<g style="mix-blend-mode:overlay" opacity="0.4">
<path d="M6.4356 21.4763C6.4356 21.4763 5.88671 24.9674 9.86139 24.9674C13.8361 24.9674 16.0894 18.5867 17.7626 15.1852C19.4382 11.7808 22.368 9.34998 25.1703 9.34998C27.9726 9.34998 29.9948 11.6466 30.587 12.9138C31.1793 14.1809 31.0854 15.795 30.7507 16.8244C30.4161 17.8538 29.2003 19.5602 28.7863 19.079C28.3722 18.5979 29.3063 17.9489 29.3063 15.6663C29.3063 13.3837 28.4011 13.5879 28.0063 13.9488C27.4285 14.567 26.9325 16.181 26.5088 15.8677C26.1212 15.5796 27.4285 12.6844 25.2955 12.7375C23.3093 12.7879 20.7888 19.065 21.4412 19.8203C22.0936 20.5784 23.656 18.1839 24.164 18.7741C24.672 19.3644 21.2702 24.1753 18.0178 26.0411C14.7653 27.9069 12.2857 27.4957 10.6583 27.2887C9.03082 27.0817 6.34171 26.2262 5.73985 24.0051C5.13799 21.784 6.4356 21.4763 6.4356 21.4763Z" fill="url(#paint2_radial_548_74)"/>
</g>
<mask id="mask0_548_74" style="mask-type:alpha" maskUnits="userSpaceOnUse" x="5" y="9" width="27" height="19">
<path d="M6.4356 21.4763C6.4356 21.4763 5.88671 24.9674 9.86139 24.9674C13.8361 24.9674 16.0894 18.5867 17.7626 15.1852C19.4382 11.7808 22.368 9.34998 25.1703 9.34998C27.9726 9.34998 29.9948 11.6466 30.587 12.9138C31.1793 14.1809 31.0854 15.795 30.7507 16.8244C30.4161 17.8538 29.2003 19.5602 28.7863 19.079C28.3722 18.5979 29.3063 17.9489 29.3063 15.6663C29.3063 13.3837 28.4011 13.5879 28.0063 13.9488C27.4285 14.567 26.9325 16.181 26.5088 15.8677C26.1212 15.5796 27.4285 12.6844 25.2955 12.7375C23.3093 12.7879 20.7888 19.065 21.4412 19.8203C22.0936 20.5784 23.656 18.1839 24.164 18.7741C24.6719 19.3643 21.2702 24.1753 18.0178 26.0411C14.7653 27.9069 12.2857 27.4957 10.6583 27.2887C9.03082 27.0817 6.34171 26.2262 5.73985 24.0051C5.13799 21.784 6.4356 21.4763 6.4356 21.4763Z" fill="#65E3FF"/>
</mask>
<g mask="url(#mask0_548_74)">
<path fill-rule="evenodd" clip-rule="evenodd" d="M22.6122 13.8824C24.6974 10.0496 28.6137 10.0703 30.2382 11.6013L30.1127 11.7345C28.5854 10.2952 24.8075 10.2301 22.7729 13.9699C21.7442 15.8606 21.268 17.1187 21.1306 18.0008C20.9945 18.8755 21.192 19.3754 21.5142 19.7617L21.3736 19.8789C21.0145 19.4484 20.8064 18.8943 20.9498 17.9727C21.0921 17.0585 21.5809 15.7779 22.6122 13.8824Z" fill="#1BC6EC"/>
</g>
<path fill-rule="evenodd" clip-rule="evenodd" d="M21.3645 17.2254C21.5593 16.2326 21.9102 15.2414 22.276 14.4337L22.4427 14.5092C22.0814 15.3069 21.7356 16.2846 21.5441 17.2606C21.3523 18.2384 21.3172 19.2051 21.5679 19.9866L21.3937 20.0425C21.1294 19.2186 21.1701 18.2165 21.3645 17.2254Z" fill="#1BC6EC"/>
<path d="M9.8642 24.9674C13.8413 24.9674 16.0922 18.5867 17.7654 15.1852C19.4386 11.7808 22.3684 9.34998 25.1707 9.34998C27.973 9.34998 29.3356 11.213 29.3356 11.213C29.3356 11.213 27.3623 9.80892 24.5688 11.6745C21.7754 13.5402 20.7627 19.0035 21.444 19.8203C22.0844 20.5896 23.6588 18.1839 24.1668 18.7741C24.6748 19.3643 22.0723 23.5771 18.2975 26.0471C15.4901 27.8841 12.5549 27.9953 10.6837 27.7275C8.81244 27.4597 6.33124 26.2794 5.72938 24.0584C5.59539 23.5639 5.58618 23.1183 5.58618 23.1183C5.58618 23.1183 5.88711 24.9674 9.8642 24.9674Z" fill="url(#paint3_linear_548_74)"/>
<g style="mix-blend-mode:overlay" opacity="0.7">
<path d="M9.8642 24.9673C13.8413 24.9673 16.0922 18.5867 17.7654 15.1852C19.4386 11.7808 22.3684 9.34998 25.1707 9.34998C27.973 9.34998 29.3356 11.213 29.3356 11.213C29.3356 11.213 27.3623 9.80892 24.5688 11.6745C21.7754 13.5402 20.7627 19.0035 21.444 19.8203C22.0844 20.5896 23.6588 18.1839 24.1668 18.7741C24.6748 19.3643 22.0723 23.5771 18.2975 26.0471C15.4901 27.8841 12.5549 27.9953 10.6837 27.7275C8.81245 27.4597 6.33124 26.2794 5.72938 24.0584C5.59539 23.5639 5.58618 23.1183 5.58618 23.1183C5.58618 23.1183 5.88711 24.9673 9.8642 24.9673Z" fill="url(#paint4_linear_548_74)"/>
</g>
<ellipse cx="27.9027" cy="20.0097" rx="0.384116" ry="0.41175" fill="#23A7ED"/>
<defs>
<linearGradient id="paint0_linear_548_74" x1="15.0465" y1="7.63969" x2="20.7016" y2="28.9104" gradientUnits="userSpaceOnUse">
<stop offset="0.0677083" stop-color="#384BD9"/>
<stop offset="0.567708" stop-color="#23A6ED"/>
</linearGradient>
<linearGradient id="paint1_linear_548_74" x1="2.35396" y1="27.0201" x2="34.0271" y2="18.8494" gradientUnits="userSpaceOnUse">
<stop offset="0.00432355" stop-color="#2C3A9E"/>
<stop offset="0.322587" stop-color="#24AAF2"/>
</linearGradient>
<radialGradient id="paint2_radial_548_74" cx="0" cy="0" r="1" gradientUnits="userSpaceOnUse" gradientTransform="translate(23.5151 7.38272) rotate(75.0364) scale(20.0819 17.9757)">
<stop offset="0.221489" stop-color="#29379E"/>
</radialGradient>
<linearGradient id="paint3_linear_548_74" x1="7.55153" y1="13.1507" x2="21.1995" y2="31.2439" gradientUnits="userSpaceOnUse">
<stop stop-color="#20D6B5"/>
<stop offset="0.590323" stop-color="#24AAF2"/>
<stop offset="1" stop-color="#384BD9"/>
</linearGradient>
<linearGradient id="paint4_linear_548_74" x1="26.7078" y1="6.01022" x2="1.17748" y2="19.251" gradientUnits="userSpaceOnUse">
<stop stop-color="white" stop-opacity="0"/>
<stop offset="0.208333" stop-color="#FDFDFD" stop-opacity="0.84"/>
<stop offset="0.988715" stop-color="white" stop-opacity="0"/>
</linearGradient>
</defs>
</svg>
