<svg width="40" height="40" viewBox="0 0 40 40" fill="none" xmlns="http://www.w3.org/2000/svg">
<path d="M28.3489 12.1844C26.7919 11.4559 25.127 10.9265 23.3864 10.625C23.1726 11.0115 22.9229 11.5313 22.7507 11.9448C20.9004 11.6666 19.0672 11.6666 17.2509 11.9448C17.0787 11.5313 16.8233 11.0115 16.6076 10.625C14.8652 10.9265 13.1984 11.4579 11.6413 12.1883C8.50073 16.9342 7.64936 21.5621 8.07505 26.1244C10.1581 27.6799 12.1767 28.6249 14.1614 29.2432C14.6514 28.5688 15.0884 27.8519 15.4649 27.0964C14.7479 26.8239 14.0611 26.4877 13.4122 26.0974C13.5843 25.9698 13.7527 25.8365 13.9154 25.6993C17.8733 27.5505 22.1737 27.5505 26.0843 25.6993C26.2489 25.8365 26.4173 25.9698 26.5875 26.0974C25.9367 26.4896 25.2481 26.8258 24.531 27.0983C24.9075 27.8519 25.3427 28.5708 25.8346 29.2451C27.8211 28.6268 29.8417 27.6819 31.9247 26.1244C32.4242 20.8356 31.0714 16.2501 28.3489 12.1844ZM16.0041 23.3186C14.816 23.3186 13.8416 22.2095 13.8416 20.8588C13.8416 19.508 14.7952 18.3969 16.0041 18.3969C17.2131 18.3969 18.1874 19.5061 18.1666 20.8588C18.1685 22.2095 17.2131 23.3186 16.0041 23.3186ZM23.9956 23.3186C22.8075 23.3186 21.8331 22.2095 21.8331 20.8588C21.8331 19.508 22.7867 18.3969 23.9956 18.3969C25.2045 18.3969 26.1789 19.5061 26.1581 20.8588C26.1581 22.2095 25.2045 23.3186 23.9956 23.3186Z" fill="white"/>
</svg>
