<svg width="40" height="40" viewBox="0 0 40 40" fill="none" xmlns="http://www.w3.org/2000/svg">
<path fill-rule="evenodd" clip-rule="evenodd" d="M20 8.125C13.0937 8.125 7.5 13.5735 7.5 20.3004C7.5 25.688 11.0781 30.2385 16.0469 31.8517C16.6719 31.9583 16.9062 31.593 16.9062 31.2734C16.9062 30.9842 16.8906 30.0254 16.8906 29.0058C13.75 29.5689 12.9375 28.26 12.6875 27.5751C12.5469 27.2251 11.9375 26.1445 11.4062 25.8554C10.9687 25.6271 10.3437 25.064 11.3906 25.0488C12.375 25.0335 13.0781 25.9315 13.3125 26.2967C14.4375 28.1383 16.2344 27.6208 16.9531 27.3012C17.0625 26.5098 17.3906 25.9771 17.75 25.6727C14.9687 25.3684 12.0625 24.3182 12.0625 19.6612C12.0625 18.3371 12.5469 17.2413 13.3438 16.389C13.2188 16.0846 12.7812 14.8367 13.4687 13.1626C13.4687 13.1626 14.5156 12.843 16.9062 14.4105C17.9062 14.1366 18.9688 13.9996 20.0313 13.9996C21.0938 13.9996 22.1563 14.1366 23.1563 14.4105C25.5469 12.8277 26.5938 13.1626 26.5938 13.1626C27.2813 14.8367 26.8438 16.0846 26.7188 16.389C27.5156 17.2413 28 18.3219 28 19.6612C28 24.3335 25.0781 25.3684 22.2969 25.6727C22.75 26.0532 23.1406 26.7837 23.1406 27.9252C23.1406 29.5536 23.125 30.8625 23.125 31.2734C23.125 31.593 23.3594 31.9735 23.9844 31.8517C26.4659 31.0358 28.6221 29.4824 30.1497 27.4102C31.6773 25.338 32.4993 22.8514 32.5 20.3004C32.5 13.5735 26.9063 8.125 20 8.125Z" fill="white"/>
</svg>
