<svg width="40" height="40" viewBox="0 0 40 40" fill="none" xmlns="http://www.w3.org/2000/svg">
<g clip-path="url(#clip0_460_12642)">
<path d="M29.874 15.1855C29.8891 15.4049 29.8891 15.6243 29.8891 15.8457C29.8891 22.5923 24.7682 30.3732 15.4043 30.3732V30.3692C12.6381 30.3732 9.92946 29.5786 7.60083 28.0802C8.00305 28.1287 8.40728 28.153 8.81252 28.154C11.1049 28.156 13.3317 27.3846 15.1351 25.9641C12.9567 25.9227 11.0464 24.4981 10.3791 22.4185C11.1422 22.5661 11.9285 22.5357 12.6774 22.3305C10.3024 21.8492 8.59377 19.7564 8.59377 17.3259C8.59377 17.3037 8.59377 17.2824 8.59377 17.2612C9.30143 17.6565 10.0938 17.8759 10.9043 17.9002C8.66736 16.4008 7.97785 13.4162 9.32865 11.0828C11.9133 14.2726 15.7268 16.2117 19.8206 16.417C19.4103 14.6436 19.9708 12.7854 21.2934 11.5388C23.3438 9.60568 26.5686 9.70476 28.496 11.7602C29.6361 11.5347 30.7289 11.1151 31.7289 10.5207C31.3488 11.7026 30.5535 12.7065 29.491 13.3445C30.5 13.2252 31.4859 12.9542 32.4143 12.5407C31.7309 13.5679 30.87 14.4627 29.874 15.1855Z" fill="white"/>
</g>
<defs>
<clipPath id="clip0_460_12642">
<rect width="25" height="20.625" fill="white" transform="translate(7.5 10)"/>
</clipPath>
</defs>
</svg>
